<svg width="42" height="42" viewBox="0 0 42 42" fill="none" xmlns="http://www.w3.org/2000/svg">
<g filter="url(#filter0_d_65157_17)">
<rect width="41.7571" height="41.7571" rx="20.8785" fill="#E3B873"/>
<rect x="-4" y="-4" width="49.7571" height="49.7571" rx="24.8785" stroke="white" stroke-width="8"/>
</g>
<path d="M15.1042 27.1323C14.1322 27.1323 13.2502 26.8743 12.4582 26.3583C11.6662 25.8423 11.0362 25.0923 10.5682 24.1083C10.1122 23.1123 9.88422 21.9303 9.88422 20.5623C9.88422 19.1943 10.1122 18.0183 10.5682 17.0343C11.0362 16.0383 11.6662 15.2823 12.4582 14.7663C13.2502 14.2503 14.1322 13.9923 15.1042 13.9923C16.0762 13.9923 16.9582 14.2503 17.7502 14.7663C18.5422 15.2823 19.1662 16.0383 19.6222 17.0343C20.0902 18.0183 20.3242 19.1943 20.3242 20.5623C20.3242 21.9303 20.0902 23.1123 19.6222 24.1083C19.1662 25.0923 18.5422 25.8423 17.7502 26.3583C16.9582 26.8743 16.0762 27.1323 15.1042 27.1323ZM15.1042 26.7723C16.4842 26.7723 17.1742 24.7023 17.1742 20.5623C17.1742 16.4223 16.4842 14.3523 15.1042 14.3523C13.7242 14.3523 13.0342 16.4223 13.0342 20.5623C13.0342 24.7023 13.7242 26.7723 15.1042 26.7723ZM25.3628 26.8623V26.5923L26.6228 26.2323V23.5323H21.4928L21.1328 22.9923L27.8828 14.0823H29.5928V22.7223H31.4828V23.5323H29.5928V26.2323L30.8528 26.5923V26.8623H25.3628ZM22.1228 22.7223H26.6228V16.7823L22.1228 22.7223Z" fill="white"/>
<defs>
<filter id="filter0_d_65157_17" x="-23" y="-18" width="87.757" height="87.7571" filterUnits="userSpaceOnUse" color-interpolation-filters="sRGB">
<feFlood flood-opacity="0" result="BackgroundImageFix"/>
<feColorMatrix in="SourceAlpha" type="matrix" values="0 0 0 0 0 0 0 0 0 0 0 0 0 0 0 0 0 0 127 0" result="hardAlpha"/>
<feOffset dy="5"/>
<feGaussianBlur stdDeviation="7.5"/>
<feColorMatrix type="matrix" values="0 0 0 0 0.890196 0 0 0 0 0.721569 0 0 0 0 0.45098 0 0 0 0.15 0"/>
<feBlend mode="normal" in2="BackgroundImageFix" result="effect1_dropShadow_65157_17"/>
<feBlend mode="normal" in="SourceGraphic" in2="effect1_dropShadow_65157_17" result="shape"/>
</filter>
</defs>
</svg>
