<svg width="42" height="42" viewBox="0 0 42 42" fill="none" xmlns="http://www.w3.org/2000/svg">
<g filter="url(#filter0_d_65157_16)">
<rect width="41.7571" height="41.7571" rx="20.8785" fill="#E3B873"/>
<rect x="-4" y="-4" width="49.7571" height="49.7571" rx="24.8785" stroke="white" stroke-width="8"/>
</g>
<path d="M15.2361 26.1323C14.2641 26.1323 13.3821 25.8743 12.5901 25.3583C11.7981 24.8423 11.1681 24.0923 10.7001 23.1083C10.2441 22.1123 10.0161 20.9303 10.0161 19.5623C10.0161 18.1943 10.2441 17.0183 10.7001 16.0343C11.1681 15.0383 11.7981 14.2823 12.5901 13.7663C13.3821 13.2503 14.2641 12.9923 15.2361 12.9923C16.2081 12.9923 17.0901 13.2503 17.8821 13.7663C18.6741 14.2823 19.2981 15.0383 19.7541 16.0343C20.2221 17.0183 20.4561 18.1943 20.4561 19.5623C20.4561 20.9303 20.2221 22.1123 19.7541 23.1083C19.2981 24.0923 18.6741 24.8423 17.8821 25.3583C17.0901 25.8743 16.2081 26.1323 15.2361 26.1323ZM15.2361 25.7723C16.6161 25.7723 17.3061 23.7023 17.3061 19.5623C17.3061 15.4223 16.6161 13.3523 15.2361 13.3523C13.8561 13.3523 13.1661 15.4223 13.1661 19.5623C13.1661 23.7023 13.8561 25.7723 15.2361 25.7723ZM25.5846 26.1323C24.7566 26.1323 24.0486 26.0183 23.4606 25.7903C22.8846 25.5623 22.4466 25.2683 22.1466 24.9083C21.8586 24.5483 21.7146 24.1763 21.7146 23.7923C21.7146 23.3843 21.8346 23.0603 22.0746 22.8203C22.3266 22.5683 22.6566 22.4423 23.0646 22.4423C23.1606 22.4423 23.2566 22.4543 23.3526 22.4783C23.4486 22.4903 23.5146 22.4963 23.5506 22.4963L23.7846 22.5323V25.4123C23.7966 25.4123 23.9226 25.4603 24.1626 25.5563C24.4746 25.6403 24.8286 25.6823 25.2246 25.6823C26.0646 25.6823 26.7066 25.4303 27.1506 24.9263C27.6066 24.4103 27.8346 23.6423 27.8346 22.6223C27.8346 21.5783 27.6126 20.7923 27.1686 20.2643C26.7366 19.7363 26.1486 19.4723 25.4046 19.4723H24.5046V19.0223H25.4046C25.9446 19.0223 26.3946 18.7823 26.7546 18.3023C27.1146 17.8223 27.2946 17.1323 27.2946 16.2323C27.2946 15.3323 27.1086 14.6423 26.7366 14.1623C26.3646 13.6823 25.8906 13.4423 25.3146 13.4423C25.0026 13.4423 24.7026 13.4903 24.4146 13.5863C24.3786 13.5983 24.2586 13.6403 24.0546 13.7123V16.5923L23.8206 16.6463C23.6286 16.6703 23.4666 16.6823 23.3346 16.6823C22.9266 16.6823 22.5966 16.5623 22.3446 16.3223C22.1046 16.0703 21.9846 15.7403 21.9846 15.3323C21.9846 14.9603 22.1286 14.5943 22.4166 14.2343C22.7046 13.8743 23.1246 13.5803 23.6766 13.3523C24.2406 13.1123 24.9066 12.9923 25.6746 12.9923C26.6826 12.9923 27.5346 13.1423 28.2306 13.4423C28.9386 13.7303 29.4666 14.1203 29.8146 14.6123C30.1746 15.1043 30.3546 15.6443 30.3546 16.2323C30.3546 16.9163 30.1806 17.4623 29.8326 17.8703C29.4846 18.2663 29.0286 18.5843 28.4646 18.8243C27.9126 19.0403 27.2826 19.1663 26.5746 19.2023V19.2923C27.3666 19.3283 28.0866 19.4663 28.7346 19.7063C30.1746 20.2823 30.8946 21.2543 30.8946 22.6223C30.8946 23.6783 30.4566 24.5303 29.5806 25.1783C28.7166 25.8143 27.3846 26.1323 25.5846 26.1323Z" fill="white"/>
<defs>
<filter id="filter0_d_65157_16" x="-23" y="-18" width="87.757" height="87.7571" filterUnits="userSpaceOnUse" color-interpolation-filters="sRGB">
<feFlood flood-opacity="0" result="BackgroundImageFix"/>
<feColorMatrix in="SourceAlpha" type="matrix" values="0 0 0 0 0 0 0 0 0 0 0 0 0 0 0 0 0 0 127 0" result="hardAlpha"/>
<feOffset dy="5"/>
<feGaussianBlur stdDeviation="7.5"/>
<feColorMatrix type="matrix" values="0 0 0 0 0.890196 0 0 0 0 0.721569 0 0 0 0 0.45098 0 0 0 0.15 0"/>
<feBlend mode="normal" in2="BackgroundImageFix" result="effect1_dropShadow_65157_16"/>
<feBlend mode="normal" in="SourceGraphic" in2="effect1_dropShadow_65157_16" result="shape"/>
</filter>
</defs>
</svg>
