<svg width="42" height="42" viewBox="0 0 42 42" fill="none" xmlns="http://www.w3.org/2000/svg">
<g filter="url(#filter0_d_65157_15)">
<rect width="41.7571" height="41.7571" rx="20.8785" fill="#E3B873"/>
<rect x="-4" y="-4" width="49.7571" height="49.7571" rx="24.8785" stroke="white" stroke-width="8"/>
</g>
<path d="M15.4708 26.7517C14.4988 26.7517 13.6168 26.4937 12.8248 25.9777C12.0328 25.4617 11.4028 24.7117 10.9348 23.7277C10.4788 22.7317 10.2508 21.5497 10.2508 20.1817C10.2508 18.8137 10.4788 17.6377 10.9348 16.6537C11.4028 15.6577 12.0328 14.9017 12.8248 14.3857C13.6168 13.8697 14.4988 13.6117 15.4708 13.6117C16.4428 13.6117 17.3248 13.8697 18.1168 14.3857C18.9088 14.9017 19.5328 15.6577 19.9888 16.6537C20.4568 17.6377 20.6908 18.8137 20.6908 20.1817C20.6908 21.5497 20.4568 22.7317 19.9888 23.7277C19.5328 24.7117 18.9088 25.4617 18.1168 25.9777C17.3248 26.4937 16.4428 26.7517 15.4708 26.7517ZM15.4708 26.3917C16.8508 26.3917 17.5408 24.3217 17.5408 20.1817C17.5408 16.0417 16.8508 13.9717 15.4708 13.9717C14.0908 13.9717 13.4008 16.0417 13.4008 20.1817C13.4008 24.3217 14.0908 26.3917 15.4708 26.3917ZM22.0394 25.6717C22.0394 24.9637 22.1774 24.3217 22.4534 23.7457C22.7414 23.1577 23.0894 22.6477 23.4974 22.2157C23.9054 21.7837 24.4394 21.2737 25.0994 20.6857C25.7114 20.1457 26.1914 19.6957 26.5394 19.3357C26.8874 18.9637 27.1814 18.5497 27.4214 18.0937C27.6614 17.6257 27.7814 17.1217 27.7814 16.5817C27.7814 15.7897 27.5894 15.1717 27.2054 14.7277C26.8214 14.2837 26.3234 14.0617 25.7114 14.0617C25.3634 14.0617 25.0094 14.1097 24.6494 14.2057L24.2714 14.3317V17.2117L24.0374 17.2657C23.8454 17.2897 23.6834 17.3017 23.5514 17.3017C23.1434 17.3017 22.8134 17.1817 22.5614 16.9417C22.3214 16.6897 22.2014 16.3597 22.2014 15.9517C22.2014 15.5677 22.3454 15.1957 22.6334 14.8357C22.9334 14.4757 23.3714 14.1817 23.9474 13.9537C24.5354 13.7257 25.2434 13.6117 26.0714 13.6117C27.6914 13.6117 28.8914 13.9357 29.6714 14.5837C30.4514 15.2317 30.8414 16.1377 30.8414 17.3017C30.8414 18.0337 30.6494 18.6637 30.2654 19.1917C29.8934 19.7197 29.4314 20.1577 28.8794 20.5057C28.3394 20.8537 27.6134 21.2497 26.7014 21.6937C25.9334 22.0657 25.3094 22.3957 24.8294 22.6837C24.3614 22.9597 23.9234 23.2957 23.5154 23.6917C23.1194 24.0877 22.8374 24.5377 22.6694 25.0417H29.3294C29.4134 24.3937 29.6174 23.8537 29.9414 23.4217C30.0734 23.2177 30.2294 23.0377 30.4094 22.8817H30.9494V26.4817H22.0394V25.6717Z" fill="white"/>
<defs>
<filter id="filter0_d_65157_15" x="-23" y="-18" width="87.757" height="87.7571" filterUnits="userSpaceOnUse" color-interpolation-filters="sRGB">
<feFlood flood-opacity="0" result="BackgroundImageFix"/>
<feColorMatrix in="SourceAlpha" type="matrix" values="0 0 0 0 0 0 0 0 0 0 0 0 0 0 0 0 0 0 127 0" result="hardAlpha"/>
<feOffset dy="5"/>
<feGaussianBlur stdDeviation="7.5"/>
<feColorMatrix type="matrix" values="0 0 0 0 0.890196 0 0 0 0 0.721569 0 0 0 0 0.45098 0 0 0 0.15 0"/>
<feBlend mode="normal" in2="BackgroundImageFix" result="effect1_dropShadow_65157_15"/>
<feBlend mode="normal" in="SourceGraphic" in2="effect1_dropShadow_65157_15" result="shape"/>
</filter>
</defs>
</svg>
